<svg width="44" height="32" viewBox="0 0 44 32" fill="none" xmlns="http://www.w3.org/2000/svg">
<path d="M24.63 27.7728C22.1313 27.7797 19.6952 27.7858 17.2591 27.7793C16.7506 27.778 16.2423 27.7303 15.6869 27.7015C15.2044 25.0276 13.8374 23.2792 10.907 23.2541C9.10994 23.2386 6.59444 24.4614 5.68759 27.6715C4.47704 27.6715 3.2437 27.7702 2.03371 27.6444C0.770094 27.5129 -0.157045 26.2661 0.0222093 24.9731C0.308249 22.9097 0.698869 20.8601 1.08286 18.8117C1.14826 18.4628 1.36926 18.1277 1.57291 17.8226C3.85078 14.4102 6.13877 11.0045 8.42535 7.59794C9.29927 6.29596 10.5546 5.7238 12.0902 5.69858C14.2941 5.6624 16.498 5.61453 18.702 5.60493C19.2889 5.60237 19.5939 5.39496 19.7129 4.81387C19.9126 3.83904 20.1448 2.87013 20.3902 1.90559C20.6673 0.816853 21.3694 0.182023 22.505 0.120732C23.7546 0.0532778 25.0071 -0.00650122 26.258 0.000570067C29.7606 0.0203562 33.2633 0.0573277 36.7652 0.128942C37.9025 0.152208 38.4798 0.821579 38.4982 1.94768C38.515 2.97614 37.9602 3.63459 36.8384 3.68043C34.6136 3.77133 32.3853 3.77241 30.1586 3.81783C29.5557 3.83014 28.9521 3.85323 28.3508 3.89844C27.6243 3.95306 27.3143 4.30635 27.322 5.022C27.329 5.67211 27.7973 6.15998 28.4515 6.16147C31.6536 6.16879 34.8557 6.15794 38.0577 6.17476C39.2637 6.18109 40.4712 6.21568 41.6745 6.29188C42.549 6.34726 43.2086 6.95593 43.3413 7.71349C43.488 8.55017 43.1436 9.25976 42.385 9.60373C42.1606 9.70549 41.8955 9.75571 41.6475 9.76124C39.2355 9.81502 36.8231 9.84831 34.4112 9.90119C33.6463 9.91796 32.881 9.95844 32.1185 10.0201C31.391 10.079 31.1355 10.3707 31.1114 11.0856C31.0896 11.7329 31.4662 12.2144 32.1224 12.2667C32.7913 12.3199 33.4662 12.2968 34.1385 12.3058C35.5751 12.3251 37.0157 12.2852 38.4471 12.3811C39.5766 12.4568 40.2901 13.2757 40.2899 14.2718C40.2897 15.3004 39.6212 15.9752 38.4005 16.0833C37.5935 16.1548 36.7782 16.1371 35.9665 16.1519C33.3219 16.2004 30.6772 16.2441 28.0327 16.2931C27.4051 16.3048 26.8813 16.4673 26.7639 17.2038C26.6501 17.9182 27.0514 18.3989 27.7895 18.4058C32.2211 18.4469 36.6528 18.4854 41.0844 18.5274C41.5018 18.5314 41.9208 18.5346 42.3361 18.5716C43.4632 18.6718 44.0501 19.3471 43.9966 20.456C43.9504 21.4151 43.3228 21.993 42.2344 22.0162C40.3323 22.0567 38.4296 22.0688 36.5273 22.0953C36.4202 22.0968 36.3135 22.1218 36.0829 22.1521C37.187 23.208 37.6738 24.4524 37.8971 25.828C38.1465 27.3641 37.2561 27.8076 36.1035 27.8007C35.9143 27.7995 35.6086 27.547 35.5562 27.356C34.8259 24.6908 33.4814 23.4427 31.1284 23.3003C29.0183 23.1726 26.7844 24.6605 25.954 26.838C25.7077 27.484 25.4076 27.8544 24.63 27.7728ZM15.9875 13.3571C16.3052 11.8466 16.6229 10.3361 16.9556 8.75485C16.5257 8.72132 16.1855 8.66828 15.8461 8.67307C14.6177 8.69038 13.3895 8.75177 12.1613 8.74852C11.223 8.74604 10.4736 9.10079 9.96267 9.85803C8.73232 11.6816 7.52454 13.521 6.34168 15.3757C5.93728 16.0098 6.09719 16.2774 6.84117 16.2691C9.29872 16.2418 11.7563 16.1983 14.2131 16.1336C15.047 16.1117 15.4636 15.7156 15.6499 14.8956C15.7576 14.4217 15.8557 13.9456 15.9875 13.3571Z" fill="#006DE7"/>
<path d="M9.16943 25.9253C9.84685 25.4496 10.7607 25.2293 11.8931 25.563C12.5951 25.7699 13.0712 26.2934 13.1851 26.98C13.2383 27.3017 13.238 27.6454 13.2153 28.0269C13.204 28.2174 13.1875 28.4108 13.1704 28.6147C13.1561 28.7859 13.1426 28.9642 13.1313 29.145C12.6698 30.187 11.9403 30.8306 10.9185 31.0972C9.85778 31.3738 8.97588 31.1008 8.41943 30.5464C7.86153 29.9904 7.56938 29.0897 7.81982 27.9897C8.00304 27.1852 8.47787 26.4111 9.16943 25.9253Z" fill="#006DE7" stroke="#0F7FB0"/>
<path d="M31.4058 25.4998C32.098 25.5969 32.6118 25.9411 32.9321 26.4207C33.2558 26.9051 33.4015 27.5587 33.2866 28.2957C33.0614 29.7388 31.9632 30.897 30.5356 31.198C29.5716 31.4012 28.7458 31.0655 28.2271 30.448C27.7051 29.8265 27.4715 28.889 27.7817 27.8582C28.0475 26.9755 28.5548 26.3112 29.397 25.8474C29.5792 25.8096 29.7578 25.7666 29.9263 25.7234C30.1249 25.6724 30.3059 25.6247 30.4858 25.5837C30.8478 25.5014 31.1443 25.4631 31.4058 25.4998Z" fill="#006DE7" stroke="#0F7FB0"/>
</svg>
